<svg xmlns="http://www.w3.org/2000/svg" xmlns:xlink="http://www.w3.org/1999/xlink" width="64.664" height="74.997" viewBox="0 0 64.664 74.997">
  <defs>
    <style>
      .cls-1 {
        fill: url(#linear-gradient);
      }

      .cls-2 {
        fill: #2626bc;
        opacity: 0.11;
      }

      .cls-3 {
        fill: #fff;
      }

      .cls-4 {
        fill: #9fb0fe;
      }

      .cls-5 {
        fill: #f1f2f7;
      }

      .cls-6 {
        fill: #f77221;
      }

      .cls-7 {
        fill: #fea052;
      }

      .cls-8 {
        fill: #dcfdee;
      }

      .cls-9 {
        fill: #8399fe;
      }

      .cls-10 {
        fill: #1482d7;
      }
    </style>
    <linearGradient id="linear-gradient" x1="0.854" y1="0.146" x2="-0.008" y2="1.008" gradientUnits="objectBoundingBox">
      <stop offset="0" stop-color="#23b4b4" stop-opacity="0.365"/>
      <stop offset="1" stop-color="#fff" stop-opacity="0"/>
    </linearGradient>
  </defs>
  <g id="Group_35109" data-name="Group 35109" transform="translate(-407.376 -277)">
    <g id="location" transform="translate(372.103 277)">
      <path id="Path_57108" data-name="Path 57108" class="cls-1" d="M163.616.062c-14.035,1.267-15.394,28.187-21.447,41.979-3,6.834-10.074,13.885-8.827,21.94,1.407,9.087,10.678,11.729,17.824,10.86,17.683-2.151,25.326-20.661,26.483-38.2.713-10.814,2.974-38.113-14.034-36.577Z" transform="translate(-83.58 0)"/>
      <path id="Path_57109" data-name="Path 57109" class="cls-2" d="M95.64,131.174H90.968A28.585,28.585,0,0,0,93.3,126.1a47.878,47.878,0,0,0-23.615-8.257c3.093-5.228,7.087-12.676,7.087-16.275a10.634,10.634,0,0,0-21.267,0c0,3.6,3.994,11.048,7.087,16.275a47.922,47.922,0,0,0-12.149,2.489v-.521a1.367,1.367,0,0,0-1.367-1.367H36.64a1.367,1.367,0,0,0-1.367,1.367V129.92a1.367,1.367,0,0,0,1.367,1.367h4.739a28.738,28.738,0,0,0,40.457,9.489v1.88a1.367,1.367,0,0,0,1.367,1.367H95.64a1.367,1.367,0,0,0,1.367-1.367V132.541a1.367,1.367,0,0,0-1.366-1.367Z" transform="translate(0 -77.61)"/>
      <path id="Path_57110" data-name="Path 57110" class="cls-3" d="M129.892,261.134a28.741,28.741,0,0,1-54.323,0,48.174,48.174,0,0,1,54.323,0Z" transform="translate(-34.393 -215.725)"/>
      <ellipse id="Ellipse_105" data-name="Ellipse 105" class="cls-4" cx="9.665" cy="2.028" rx="9.665" ry="2.028" transform="translate(58.673 40.062)"/>
      <path id="Path_57111" data-name="Path 57111" class="cls-5" d="M105.582,330.866v6.1A28.682,28.682,0,0,1,83.1,326.132q-.62-.778-1.184-1.6a28.549,28.549,0,0,1-3.01-5.6h14.8a1.465,1.465,0,0,1,1.465,1.465v1.947a1.463,1.463,0,0,0,.429,1.036l1.5,1.5a1.463,1.463,0,0,0,1.036.429h1.881a1.463,1.463,0,0,1,1.036.429l4.1,4.1a1.463,1.463,0,0,1,.429,1.036Z" transform="translate(-37.245 -272.214)"/>
      <path id="Path_57113" data-name="Path 57113" class="cls-5" d="M308.219,261.842a28.7,28.7,0,0,1-7.29,11.362H293.1a1.464,1.464,0,0,1-1.036-.429l-1.863-1.863a1.463,1.463,0,0,1-.429-1.036V266.4a1.464,1.464,0,0,0-.429-1.036l-2.251-2.251a1.464,1.464,0,0,1-.429-1.036v-.926a1.459,1.459,0,0,0-.337-.933,1.235,1.235,0,0,0-.092-.1l-1.308-1.31a1.463,1.463,0,0,1-.429-1.036v-4.2A47.871,47.871,0,0,1,308.219,261.842Z" transform="translate(-212.721 -216.432)"/>
      <path id="Path_57115" data-name="Path 57115" class="cls-3" d="M65.445,259.1v10.114a1.367,1.367,0,0,1-1.367,1.367H51.641a1.367,1.367,0,0,1-1.367-1.367V259.1a1.367,1.367,0,0,1,1.367-1.367H64.078A1.367,1.367,0,0,1,65.445,259.1Z" transform="translate(-12.804 -219.982)"/>
      <path id="Path_57116" data-name="Path 57116" class="cls-6" d="M72.959,278.519H70.511a.732.732,0,1,1,0-1.465h2.447a.732.732,0,0,1,0,1.465Z" transform="translate(-29.452 -236.471)"/>
      <path id="Path_57120" data-name="Path 57120" class="cls-3" d="M383.325,346.045v10.114a1.367,1.367,0,0,1-1.367,1.367H369.521a1.367,1.367,0,0,1-1.367-1.367V346.045a1.367,1.367,0,0,1,1.367-1.367h12.438A1.367,1.367,0,0,1,383.325,346.045Z" transform="translate(-284.121 -294.19)"/>
      <path id="Path_57121" data-name="Path 57121" class="cls-7" d="M390.839,365.462h-2.447a.732.732,0,0,1,0-1.465h2.447a.732.732,0,0,1,0,1.465Z" transform="translate(-300.769 -310.679)"/>
      <path id="Path_57124" data-name="Path 57124" class="cls-8" d="M449.763,372.088v7.466a1.367,1.367,0,0,1-1.367,1.367h-2.4a1.367,1.367,0,0,0,1.367-1.367v-5.213a1.444,1.444,0,0,0,.461-.312Z" transform="translate(-350.559 -317.585)"/>
      <path id="Path_57125" data-name="Path 57125" class="cls-3" d="M209.672,80.563c0,4.623-6.589,15.6-9.394,20.057a1.464,1.464,0,0,1-2.479,0c-2.8-4.461-9.394-15.434-9.394-20.057a10.634,10.634,0,1,1,21.267,0Z" transform="translate(-130.701 -59.686)"/>
      <path id="Path_57128" data-name="Path 57128" class="cls-9" d="M115.656,213.345a2.139,2.139,0,1,1,.989-.244A2.141,2.141,0,0,1,115.656,213.345Zm.649-.893h0Zm-.653-1.921a.675.675,0,1,0,.2.031A.68.68,0,0,0,115.651,210.531Z" transform="translate(-66.78 -178.443)"/>
      <path id="Path_57129" data-name="Path 57129" class="cls-10" d="M128.511,428.586a2.142,2.142,0,1,1,.348-.029A2.142,2.142,0,0,1,128.511,428.586Zm0-2.814a.691.691,0,0,0-.111.009.671.671,0,1,0,.111-.009Z" transform="translate(-77.756 -362.155)"/>
      <path id="Path_57130" data-name="Path 57130" class="cls-6" d="M236.2,30.226a2.145,2.145,0,1,1,.352-.029A2.164,2.164,0,0,1,236.2,30.226Zm.233-.752h0Zm-.227-2.062a.693.693,0,0,0-.111.009.671.671,0,1,0,.111-.009Z" transform="translate(-169.671 -22.146)"/>
      <path id="Path_57131" data-name="Path 57131" class="cls-6" d="M385.335,235.305h-.476v-.476a.732.732,0,1,0-1.465,0v.476h-.476a.732.732,0,0,0,0,1.465h.476v.476a.732.732,0,0,0,1.465,0v-.476h.476a.732.732,0,0,0,0-1.465Z" transform="translate(-296.098 -199.807)"/>
      <path id="Path_57132" data-name="Path 57132" class="cls-6" d="M100.274,400.041H99.8v-.476a.732.732,0,0,0-1.465,0v.476h-.476a.732.732,0,0,0,0,1.465h.476v.476a.732.732,0,0,0,1.465,0v-.476h.476a.732.732,0,0,0,0-1.465Z" transform="translate(-52.792 -340.412)"/>
      <path id="Path_57133" data-name="Path 57133" class="cls-10" d="M108.473,107.272a2.1,2.1,0,0,0-2.1-2.1h-3.428a29.48,29.48,0,0,0,3.392-13.733.732.732,0,1,0-1.465,0,27.994,27.994,0,0,1-3.6,13.733H93.936a2.1,2.1,0,0,0-2.1,2.1v7.818s0,0,0,0v.014a28.025,28.025,0,0,1-28.964.584,28.185,28.185,0,0,1-9.442-8.942h6.38a2.1,2.1,0,0,0,2.1-2.1V95.582a47.272,47.272,0,0,1,11.013-2.247q.962,1.609,2.091,3.406a2.2,2.2,0,0,0,3.719,0q1.132-1.8,2.091-3.406a46.863,46.863,0,0,1,19.183,5.853.732.732,0,0,0,.716-1.278A48.294,48.294,0,0,0,81.65,91.938c5.658-9.692,6.59-13.917,6.59-15.644a11.366,11.366,0,1,0-22.732,0c0,1.727.932,5.952,6.59,15.644a48.738,48.738,0,0,0-10.244,2.12,2.1,2.1,0,0,0-2.042-1.621H48.895c-.012-.333-.02-.666-.02-1a.732.732,0,0,0-1.465,0c0,.331.008.665.019,1h-.055a2.1,2.1,0,0,0-2.1,2.1v1.546a.732.732,0,0,0,1.465,0V94.537a.635.635,0,0,1,.634-.634H59.811a.635.635,0,0,1,.634.634v2.345l-1.73,1.73a.709.709,0,0,1-.225.152.739.739,0,0,1-.289.059H52.6a2.191,2.191,0,0,0-1.555.644L49.1,101.413a.732.732,0,0,1-.516.213H46.739V100.2a.732.732,0,0,0-1.465,0v4.453a2.1,2.1,0,0,0,2.1,2.1H51.7a29.474,29.474,0,0,0,40.139,10.075v.561a2.1,2.1,0,0,0,2.1,2.1h12.438a2.1,2.1,0,0,0,2.1-2.1V107.272Zm-31.6-40.879a9.912,9.912,0,0,1,9.9,9.9c0,4.55-7.1,16.2-9.282,19.667a.732.732,0,0,1-1.239,0c-2.177-3.463-9.282-15.117-9.282-19.667A9.913,9.913,0,0,1,76.873,66.393Zm-28.289,36.7a2.205,2.205,0,0,0,1.554-.644l1.944-1.944a.734.734,0,0,1,.521-.216h5.6a2.2,2.2,0,0,0,.862-.176,2.167,2.167,0,0,0,.692-.468l.691-.691v5.7a.634.634,0,0,1-.634.634H47.373a.635.635,0,0,1-.634-.634v-1.559Zm58.423,14.3a.634.634,0,0,1-.634.634H93.936a.635.635,0,0,1-.634-.634v-1.559h1.845a2.205,2.205,0,0,0,1.553-.644l1.944-1.944a.735.735,0,0,1,.521-.216h5.6a2.2,2.2,0,0,0,.862-.176,2.168,2.168,0,0,0,.692-.468l.69-.69v5.7ZM93.936,106.638h12.437a.635.635,0,0,1,.634.634v2.345l-1.729,1.729a.711.711,0,0,1-.226.153.735.735,0,0,1-.289.059h-5.6a2.191,2.191,0,0,0-1.555.644l-1.947,1.947a.732.732,0,0,1-.516.213H93.3v-7.089a.635.635,0,0,1,.634-.634Z" transform="translate(-8.536 -55.417)"/>
    </g>
    <path id="Path_57134" data-name="Path 57134" class="cls-10" d="M269.554,73a.8.8,0,0,0-.8.8v.4H265.3v-.4a.8.8,0,0,0-1.609,0v2.574a2.5,2.5,0,0,0,1.078,2.056l.764.528-.764.528a2.5,2.5,0,0,0-1.078,2.056v2.574a.8.8,0,0,0,1.609,0v-.4h3.45v.4a.8.8,0,0,0,1.609,0V81.655a2.5,2.5,0,0,0-1.078-2.056l-.92-.636.92-.636a2.5,2.5,0,0,0,1.078-2.056V73.8A.8.8,0,0,0,269.554,73Zm-1.188,7.923a.89.89,0,0,1,.384.732v.455H265.3v-.563a.89.89,0,0,1,.384-.732l1.263-.873Zm0-3.92-1.419.982-1.263-.873a.891.891,0,0,1-.384-.732v-.563h3.45v.455A.89.89,0,0,1,268.365,77Z" transform="translate(173.175 220.885)"/>
  </g>
</svg>
